<?xml version="1.0" encoding="utf-8"?>
<!-- Generator: Adobe Illustrator 24.2.1, SVG Export Plug-In . SVG Version: 6.00 Build 0)  -->
<svg version="1.1" id="Layer_1" xmlns="http://www.w3.org/2000/svg" xmlns:xlink="http://www.w3.org/1999/xlink" x="0px" y="0px"
	 viewBox="0 0 48 48" enable-background="new 0 0 48 48" xml:space="preserve">
<g>
	<path id="path3336-3_8_" fill-rule="evenodd" clip-rule="evenodd" fill="#DC2238" d="M12.42,5.49c-0.2,0.29-0.38,0.58-0.56,0.89
		c-1.56,2.75-2.66,6.6-1.15,9.59c0.85,1.77,1.17,3.88,0.12,5.64c-1.72,3.88-5.28,7.47-4.65,12.02c1.52,7.12,8.34,12.19,15.33,13.16
		c6.32,0.85,13.24-0.89,17.84-5.45c2.27-2.34,3.16-5.88,2.08-8.98c-0.57-1.63-1.16-3.22-1.84-4.82c-0.68-1.58-1.33-3.21-1.57-4.93
		c-0.21-1.47-0.08-2.96,0.51-4.32c0.38-0.88,0.81-1.74,1.28-2.58c0.24-0.42,0.48-0.83,0.74-1.23c0.12-0.19,0.73-1,0.1-0.75
		c-3.05,1.18-5.65,3.15-7.18,6.09c-0.96,1.84-1.57,4.09-1.35,6.17c0.21,2.03,1.04,4.15,0.37,6.18c-0.39,1.18-1.29,2.16-2.35,2.82
		c-1.06,0.66-2.28,1.01-3.51,1.22c-2.17,0.37-4.47,0.27-6.45-0.67c-3.55-1.68-4.51-5.61-3.16-9.11c0.53-1.38,1.29-2.66,1.84-4.03
		c0.87-2.15,1.09-4.95,0.12-7.11c-1.02-2.26-2.8-3.65-3.18-6.28c-0.18-1.25-0.18-2.52,0-3.77c0.1-0.67,0.25-1.33,0.47-1.97
		c0.11-0.3,0.21-0.61,0.3-0.92c0.07-0.22,0.14-0.45,0.16-0.67c0.01-0.06,0.01-0.11-0.01-0.17c0-0.02-0.01-0.03-0.03-0.04
		c-0.02-0.01-0.05,0-0.07,0.02c-0.64,0.43-1.27,0.89-1.85,1.39C13.89,3.65,13.09,4.52,12.42,5.49z"/>
	<path id="path4168_8_" fill="#DC2238" d="M23.42,1.2c1.79-0.44,3.83-0.15,5.27,0.85c2.08,1.44,3.04,4.09,2.07,6.45
		c-0.91,2.2-3.11,3.67-5.49,3.67c-4.61,0-8.05-5.86-4.59-9.46C21.41,1.96,22.37,1.45,23.42,1.2z"/>
</g>
</svg>
